<?xml version="1.0" encoding="utf-8"?>
<!-- Generator: Adobe Illustrator 15.1.0, SVG Export Plug-In . SVG Version: 6.00 Build 0)  -->
<!DOCTYPE svg PUBLIC "-//W3C//DTD SVG 1.1//EN" "http://www.w3.org/Graphics/SVG/1.1/DTD/svg11.dtd">
<svg version="1.1" id="Layer_1" xmlns="http://www.w3.org/2000/svg" xmlns:xlink="http://www.w3.org/1999/xlink" x="0px" y="0px"
	 width="183.43px" height="60.447px" viewBox="0 0 183.43 60.447" enable-background="new 0 0 183.43 60.447" xml:space="preserve">
<g>
	<path fill-rule="evenodd" clip-rule="evenodd" fill="#FFFFFF" d="M78.387,7.947C79.646,6.413,79.785,9.208,78.387,7.947
		L78.387,7.947z"/>
	<path fill-rule="evenodd" clip-rule="evenodd" fill="#D6C2AA" d="M162.68,22.825c3.821-3.234,6.451-7.659,11.62-9.545
		c-8.354,6.586-14.714,15.167-19.92,24.9c0.733,0.839,3.594-1.907,2.904-2.489c1.865-0.67,4.201-3.967,6.641-5.396
		c1.005,3.1-2.296,6.013-3.735,8.3c1.363,2.684-1.623,4.438-1.245,6.225c-2.256,1.242-4.2,3.509-6.64,5.397
		c-1.945,1.504-2.969,3.871-4.98,5.395c-11.915,9.018-37.238,6.326-33.614-15.771c2.478-3.056,3.533-7.533,4.564-12.035
		c-0.388,0.304-0.629,0.755-0.83,1.245c-1.016-0.046-0.088-1.372,0.415-1.245c-1.331-4.29-6.797-3.907-9.13-6.225
		c-10.541-3.112-19.017,3.975-28.22,5.396c-1.095,0.168-2.165-0.111-3.32,0c-5.16,0.49-9.187,2.711-15.355,3.319
		c-7.726,0.761-16.264,4.315-22.825,6.226c-2.346,0.682-4.201-0.129-6.64-0.416c-5.65-0.662-11.421,1.074-17.43,0.83
		c1.923-1.535,5.55-1.073,9.13-1.66c4.82-0.789,10.763-2.342,15.77-3.734c4.746-1.32,9.708-2.48,14.11-4.15
		c-0.052-0.916-1.76-0.176-2.49-0.414c0.375-0.732,1.528-0.687,1.66-1.66c-5.047,1.464-13.118,2.517-19.09,4.149
		c-1.122,0.307-2.178,1.536-3.32,0.83c-0.871,0.116,0.602,1.108-0.415,1.66C20.789,31.535,10.592,35.894,0,33.2
		c1.001-1.581,3.762-0.772,5.395-0.83c3.879-0.137,9.381-0.481,12.865-2.49c2.183,0.107,3.866-0.283,5.395-0.83
		c0.152-0.706-0.324-0.783-0.83-0.83c5.884-1.426,12.307-3.742,18.675-5.811c1.967-2.564,6.04-1.768,8.715-2.904
		c-0.267-1.09,3.702-1.467,5.81-2.075c4.308-1.243,8.895-2.92,12.865-3.735c-0.128-0.563-1.039-0.344-1.66-0.415
		c6.134-4.241,16.293-4.457,23.655-7.47c8.159-0.933,16.335-4.701,24.899-1.66c0.921,0.229,0.592-0.792,1.245-0.83
		c13.944,2.964,23.622,11.833,21.58,29.464c1.334-0.408,0.397-3.086,2.49-1.659c0.01-0.978-0.715-1.222-0.415-2.49
		c0.545,0.146,0.653,0.731,1.245,0.83c-1.064-2.956,1.677-2.874,2.075-5.396c2.132,0.918,1.271-2.055,2.49-0.83
		c0.937-0.232-0.504-0.646,0.414-1.245c4.235-1.16,5.449-5.341,8.301-7.885c2.227,0.383-0.821,1.309-0.415,2.49
		C163.231,9.958,169.63,1.279,183.43,0c-3.113,1.866-7.47,2.49-9.96,4.98c1.582,1.177,4.006-2.19,5.81-0.83
		C171.717,8.346,166.41,14.796,162.68,22.825z M69.72,13.28C71.118,14.54,70.979,11.746,69.72,13.28L69.72,13.28z"/>
</g>
</svg>
