<?xml version="1.0" encoding="utf-8"?>
<!-- Generator: Adobe Illustrator 15.1.0, SVG Export Plug-In . SVG Version: 6.00 Build 0)  -->
<!DOCTYPE svg PUBLIC "-//W3C//DTD SVG 1.1//EN" "http://www.w3.org/Graphics/SVG/1.1/DTD/svg11.dtd">
<svg version="1.1" id="Logo" xmlns="http://www.w3.org/2000/svg" xmlns:xlink="http://www.w3.org/1999/xlink" x="0px" y="0px"
	 width="362.921px" height="368.295px" viewBox="0 0 362.921 368.295" enable-background="new 0 0 362.921 368.295"
	 xml:space="preserve">
<g>
	<linearGradient id="SVGID_1_" gradientUnits="userSpaceOnUse" x1="-34.542" y1="145.957" x2="207.4578" y2="361.9569">
		<stop  offset="0" style="stop-color:#CBE61B"/>
		<stop  offset="0.4456" style="stop-color:#C9E41A"/>
		<stop  offset="0.6582" style="stop-color:#C1DC15"/>
		<stop  offset="0.8213" style="stop-color:#B4CF0E"/>
		<stop  offset="0.8344" style="stop-color:#B3CE0D"/>
		<stop  offset="1" style="stop-color:#90A718"/>
	</linearGradient>
	<path fill="url(#SVGID_1_)" d="M8.186,219.186c0,0,1.333,88,94.667,128c0,0,70.667,38.668,129.333,11.334c8.667-8,2-14,12-18.667
		c0,0-64.929-141.604-179.333-155.333C14.853,178.519,12.853,187.186,8.186,219.186z"/>
	<linearGradient id="SVGID_2_" gradientUnits="userSpaceOnUse" x1="129.5747" y1="-21.3164" x2="351.5763" y2="124.6845">
		<stop  offset="0" style="stop-color:#CBE61B"/>
		<stop  offset="0.4456" style="stop-color:#C9E41A"/>
		<stop  offset="0.6582" style="stop-color:#C1DC15"/>
		<stop  offset="0.8213" style="stop-color:#B4CF0E"/>
		<stop  offset="0.8344" style="stop-color:#B3CE0D"/>
		<stop  offset="1" style="stop-color:#90A718"/>
	</linearGradient>
	<path fill="url(#SVGID_2_)" d="M122.853,24.519c0,0,4.666-18,36-23.333c26.954-4.587,105.334,2.667,148.667,48s40.667,68,42,77.333
		C349.519,126.519,171.519,34.519,122.853,24.519z"/>
	<linearGradient id="SVGID_3_" gradientUnits="userSpaceOnUse" x1="34.9634" y1="44.8857" x2="322.9631" y2="292.8855">
		<stop  offset="0" style="stop-color:#CBE61B"/>
		<stop  offset="0.4456" style="stop-color:#C9E41A"/>
		<stop  offset="0.6582" style="stop-color:#C1DC15"/>
		<stop  offset="0.8213" style="stop-color:#B4CF0E"/>
		<stop  offset="0.8344" style="stop-color:#B3CE0D"/>
		<stop  offset="1" style="stop-color:#90A718"/>
	</linearGradient>
	<path fill="url(#SVGID_3_)" d="M8.186,219.186c0,0-38.646-74.445,52-173.333c14.667-16,39.667-27.333,54.333-26.667
		s180.834,58.917,233.5,97.917c0,0,57.881,120.58-54.5,213.417c-30.666,25.333-49.334,28.666-66-1.334
		c-6.006-10.812-40.659-71.21-64.667-86C88.186,197.186,25.519,156.519,8.186,219.186z"/>
</g>
<g>
	<path fill="#FFFFFF" d="M238.186,345.853c-6.301-10.437-12.896-20.593-19.922-30.363c-7.026-9.75-14.467-19.159-22.717-27.53
		c-2.057-2.094-4.17-4.111-6.347-6.025c-2.236-1.964-4.495-3.94-6.781-5.89c-4.581-3.881-9.173-7.748-13.848-11.516
		c-4.674-3.767-9.354-7.524-14.126-11.156c-4.749-3.659-9.535-7.267-14.399-10.732c-4.834-3.498-9.736-6.902-14.697-10.03
		c-2.478-1.58-4.929-3.068-7.43-4.39c-2.72-1.449-5.427-2.912-8.077-4.425c-5.312-3.017-10.533-6.008-15.748-8.877
		c-5.23-2.841-10.494-5.516-15.895-7.935c-2.704-1.197-5.425-2.369-8.183-3.466c-2.75-1.093-5.582-2.144-8.363-3.163
		c-5.588-1.991-11.197-3.777-16.87-4.647c-5.651-0.889-11.423-0.751-16.768,1.333c-5.356,2.05-10.008,6.081-13.83,10.812
		c1.351-2.738,3.053-5.326,5.079-7.712c2.053-2.355,4.503-4.448,7.288-6.088c2.774-1.663,5.895-2.779,9.08-3.447
		c3.193-0.668,6.453-0.852,9.661-0.773c6.43,0.205,12.644,1.463,18.655,2.977c5.99,1.53,11.925,3.287,17.787,5.427
		c11.75,4.187,22.853,9.989,33.519,15.547l8.003,4.097c2.899,1.446,5.675,3.047,8.351,4.666c5.337,3.29,10.431,6.776,15.448,10.359
		c4.983,3.622,9.879,7.333,14.684,11.151c4.781,3.849,9.52,7.741,14.136,11.779c4.617,4.035,9.179,8.134,13.61,12.377
		c2.215,2.118,4.43,4.24,6.612,6.433c2.23,2.256,4.353,4.586,6.39,6.97c8.103,9.577,14.839,19.985,20.744,30.753
		c2.934,5.396,5.683,10.874,8.171,16.465c1.243,2.795,2.454,5.601,3.604,8.43C236.117,340.11,237.237,342.949,238.186,345.853z"/>
</g>
<g>
	<path fill="#FFFFFF" d="M129.519,21.853c19.487,3.953,38.679,8.977,57.733,14.507c9.523,2.781,18.998,5.735,28.425,8.892
		c9.426,3.173,18.789,6.521,28.086,10.394c2.312,0.977,4.66,2.026,6.933,3.107l6.699,3.148l13.401,6.367
		c8.924,4.29,17.838,8.646,26.646,13.242c8.806,4.598,17.543,9.372,26.041,14.589c4.227,2.647,8.438,5.323,12.493,8.242
		c4.047,2.917,8.02,5.988,11.542,9.511c-2.079-1.366-4.182-2.661-6.341-3.863c-2.141-1.227-4.311-2.397-6.505-3.521
		c-4.386-2.25-8.802-4.429-13.286-6.479c-8.933-4.163-17.953-8.145-26.998-12.095l-27.161-11.871l-13.565-6.054l-6.762-3.111
		c-2.202-1.031-4.383-1.978-6.632-2.921c-4.469-1.904-9.036-3.686-13.619-5.446c-4.575-1.784-9.195-3.481-13.811-5.209
		l-27.793-10.223C166.494,36.224,147.921,29.368,129.519,21.853z"/>
</g>
</svg>
